<mxfile host="app.diagrams.net" agent="Mozilla/5.0 (Windows NT 10.0; Win64; x64) AppleWebKit/537.36 (KHTML, like Gecko) Chrome/131.0.0.0 Safari/537.36" version="24.8.6">
  <diagram name="Page-1" id="VZF6ikyh2R9G2Um14KB4">
    <mxGraphModel dx="448" dy="508" grid="1" gridSize="10" guides="1" tooltips="1" connect="1" arrows="1" fold="1" page="1" pageScale="1" pageWidth="850" pageHeight="1100" math="0" shadow="0">
      <root>
        <mxCell id="0" />
        <mxCell id="1" parent="0" />
        <mxCell id="HdwHcUbBK1Hrgu17Ygms-6" value="" style="triangle;whiteSpace=wrap;html=1;rotation=-90;" parent="1" vertex="1">
          <mxGeometry x="220" y="380" width="20" height="20" as="geometry" />
        </mxCell>
        <mxCell id="HdwHcUbBK1Hrgu17Ygms-7" value="" style="triangle;whiteSpace=wrap;html=1;rotation=-90;" parent="1" vertex="1">
          <mxGeometry x="500" y="320" width="20" height="20" as="geometry" />
        </mxCell>
        <mxCell id="HdwHcUbBK1Hrgu17Ygms-8" value="" style="endArrow=none;html=1;rounded=0;exitX=1;exitY=0.5;exitDx=0;exitDy=0;entryX=1;entryY=0.5;entryDx=0;entryDy=0;strokeWidth=2;" parent="1" source="HdwHcUbBK1Hrgu17Ygms-6" target="HdwHcUbBK1Hrgu17Ygms-7" edge="1">
          <mxGeometry width="50" height="50" relative="1" as="geometry">
            <mxPoint x="280" y="410" as="sourcePoint" />
            <mxPoint x="330" y="360" as="targetPoint" />
          </mxGeometry>
        </mxCell>
        <mxCell id="HdwHcUbBK1Hrgu17Ygms-9" value="" style="endArrow=none;html=1;rounded=0;exitX=1;exitY=0.5;exitDx=0;exitDy=0;strokeWidth=2;" parent="1" source="HdwHcUbBK1Hrgu17Ygms-6" edge="1">
          <mxGeometry width="50" height="50" relative="1" as="geometry">
            <mxPoint x="280" y="410" as="sourcePoint" />
            <mxPoint x="370" y="270" as="targetPoint" />
          </mxGeometry>
        </mxCell>
        <mxCell id="HdwHcUbBK1Hrgu17Ygms-12" value="" style="endArrow=none;html=1;rounded=0;entryX=1;entryY=0.5;entryDx=0;entryDy=0;strokeWidth=2;" parent="1" target="HdwHcUbBK1Hrgu17Ygms-7" edge="1">
          <mxGeometry width="50" height="50" relative="1" as="geometry">
            <mxPoint x="290" y="240" as="sourcePoint" />
            <mxPoint x="330" y="360" as="targetPoint" />
          </mxGeometry>
        </mxCell>
        <mxCell id="HdwHcUbBK1Hrgu17Ygms-13" value="" style="endArrow=none;html=1;rounded=0;strokeWidth=2;" parent="1" edge="1">
          <mxGeometry width="50" height="50" relative="1" as="geometry">
            <mxPoint x="370" y="270" as="sourcePoint" />
            <mxPoint x="290" y="240" as="targetPoint" />
          </mxGeometry>
        </mxCell>
        <mxCell id="HdwHcUbBK1Hrgu17Ygms-14" value="A" style="text;html=1;align=center;verticalAlign=middle;whiteSpace=wrap;rounded=0;fontSize=20;" parent="1" vertex="1">
          <mxGeometry x="210" y="350" width="20" height="30" as="geometry" />
        </mxCell>
        <mxCell id="HdwHcUbBK1Hrgu17Ygms-15" value="B" style="text;html=1;align=center;verticalAlign=middle;whiteSpace=wrap;rounded=0;fontSize=20;" parent="1" vertex="1">
          <mxGeometry x="510" y="290" width="20" height="30" as="geometry" />
        </mxCell>
        <mxCell id="HdwHcUbBK1Hrgu17Ygms-16" value="C" style="text;html=1;align=center;verticalAlign=middle;whiteSpace=wrap;rounded=0;fontSize=20;" parent="1" vertex="1">
          <mxGeometry x="280" y="199.99999999999997" width="20" height="30" as="geometry" />
        </mxCell>
        <mxCell id="HdwHcUbBK1Hrgu17Ygms-18" value="D" style="text;html=1;align=center;verticalAlign=middle;whiteSpace=wrap;rounded=0;fontSize=20;" parent="1" vertex="1">
          <mxGeometry x="360" y="230" width="20" height="30" as="geometry" />
        </mxCell>
        <mxCell id="HdwHcUbBK1Hrgu17Ygms-25" value="" style="endArrow=none;dashed=1;html=1;dashPattern=1 3;strokeWidth=2;rounded=0;exitX=1;exitY=1;exitDx=0;exitDy=0;" parent="1" source="HdwHcUbBK1Hrgu17Ygms-14" edge="1">
          <mxGeometry width="50" height="50" relative="1" as="geometry">
            <mxPoint x="280" y="410" as="sourcePoint" />
            <mxPoint x="520" y="380" as="targetPoint" />
          </mxGeometry>
        </mxCell>
        <mxCell id="HdwHcUbBK1Hrgu17Ygms-33" value="" style="verticalLabelPosition=bottom;verticalAlign=top;html=1;shape=mxgraph.basic.arc;startAngle=0.24204887437191183;endAngle=0.3453617144319537;rotation=-30;" parent="1" vertex="1">
          <mxGeometry x="200.42" y="340.99" width="61.17" height="67.79" as="geometry" />
        </mxCell>
        <mxCell id="HdwHcUbBK1Hrgu17Ygms-34" value="" style="verticalLabelPosition=bottom;verticalAlign=top;html=1;shape=mxgraph.basic.arc;startAngle=0.4173753297307161;endAngle=0.4518918376902369;rotation=-75;" parent="1" vertex="1">
          <mxGeometry x="157.83" y="310" width="144.34" height="146.95" as="geometry" />
        </mxCell>
        <mxCell id="HdwHcUbBK1Hrgu17Ygms-39" value="&lt;span style=&quot;font-family: Arial, sans-serif; text-align: left; text-wrap-mode: wrap; background-color: rgb(255, 255, 255);&quot;&gt;&lt;font style=&quot;font-size: 18px;&quot;&gt;α_min&lt;/font&gt;&lt;/span&gt;" style="text;html=1;align=center;verticalAlign=middle;resizable=0;points=[];autosize=1;strokeColor=none;fillColor=none;" parent="1" vertex="1">
          <mxGeometry x="280" y="320" width="70" height="40" as="geometry" />
        </mxCell>
        <mxCell id="HdwHcUbBK1Hrgu17Ygms-40" value="&lt;span style=&quot;font-family: Arial, sans-serif; font-size: 18px; text-align: left; text-wrap-mode: wrap; background-color: rgb(255, 255, 255);&quot;&gt;θ&lt;/span&gt;" style="text;html=1;align=center;verticalAlign=middle;resizable=0;points=[];autosize=1;strokeColor=none;fillColor=none;fontSize=18;fontColor=#000000;" parent="1" vertex="1">
          <mxGeometry x="322" y="350" width="30" height="40" as="geometry" />
        </mxCell>
        <mxCell id="AUBmNn1cWlHKE3LHTFNs-2" value="a" style="text;html=1;align=center;verticalAlign=middle;whiteSpace=wrap;rounded=0;fontSize=17;" parent="1" vertex="1">
          <mxGeometry x="282.17" y="290" width="20" height="30" as="geometry" />
        </mxCell>
        <mxCell id="AUBmNn1cWlHKE3LHTFNs-3" value="b-h" style="text;html=1;align=center;verticalAlign=middle;whiteSpace=wrap;rounded=0;fontSize=17;" parent="1" vertex="1">
          <mxGeometry x="425" y="264" width="35" height="30" as="geometry" />
        </mxCell>
        <mxCell id="AUBmNn1cWlHKE3LHTFNs-5" value="g" style="text;html=1;align=center;verticalAlign=middle;whiteSpace=wrap;rounded=0;fontSize=17;" parent="1" vertex="1">
          <mxGeometry x="370" y="343" width="20" height="30" as="geometry" />
        </mxCell>
        <mxCell id="mHPuSdNBre5cZTmAf08K-2" value="h" style="text;html=1;align=center;verticalAlign=middle;whiteSpace=wrap;rounded=0;fontSize=17;" parent="1" vertex="1">
          <mxGeometry x="317" y="227" width="35" height="30" as="geometry" />
        </mxCell>
      </root>
    </mxGraphModel>
  </diagram>
</mxfile>
